<?xml version="1.0" encoding="UTF-8" standalone="no"?>
<!-- Created with Inkscape (http://www.inkscape.org/) -->

<svg
   width="210mm"
   height="297mm"
   viewBox="0 0 210 297"
   version="1.1"
   id="svg1"
   inkscape:version="1.3 (0e150ed6c4, 2023-07-21)"
   sodipodi:docname="pacman.svg"
   inkscape:export-filename="t-b_pacman.png"
   inkscape:export-xdpi="96"
   inkscape:export-ydpi="96"
   xmlns:inkscape="http://www.inkscape.org/namespaces/inkscape"
   xmlns:sodipodi="http://sodipodi.sourceforge.net/DTD/sodipodi-0.dtd"
   xmlns="http://www.w3.org/2000/svg"
   xmlns:svg="http://www.w3.org/2000/svg"
   xmlns:rdf="http://www.w3.org/1999/02/22-rdf-syntax-ns#"
   xmlns:cc="http://creativecommons.org/ns#"
   xmlns:dc="http://purl.org/dc/elements/1.1/">
  <title
     id="title1">Pacman</title>
  <sodipodi:namedview
     id="namedview1"
     pagecolor="#ffffff"
     bordercolor="#000000"
     borderopacity="0.25"
     inkscape:showpageshadow="2"
     inkscape:pageopacity="0.0"
     inkscape:pagecheckerboard="0"
     inkscape:deskcolor="#d1d1d1"
     inkscape:document-units="mm"
     inkscape:zoom="0.69219276"
     inkscape:cx="395.84349"
     inkscape:cy="445.6851"
     inkscape:window-width="1920"
     inkscape:window-height="991"
     inkscape:window-x="-9"
     inkscape:window-y="-9"
     inkscape:window-maximized="1"
     inkscape:current-layer="layer1" />
  <defs
     id="defs1" />
  <g
     inkscape:label="Layer 1"
     inkscape:groupmode="layer"
     id="layer1">
    <circle
       style="fill:#f6ff00;fill-opacity:0.847619;stroke:none;stroke-width:2.66499"
       id="path1"
       cx="16"
       cy="16"
       r="14"
       transform="matrix(0,1,1,0,0,0)" />
    <path
       style="fill:#f6ff00;fill-opacity:0.847619;stroke:none;stroke-width:2.68799"
       id="path1-9"
       sodipodi:type="arc"
       sodipodi:cx="46.242649"
       sodipodi:cy="16"
       sodipodi:rx="14.242653"
       sodipodi:ry="14"
       sodipodi:start="0.26179939"
       sodipodi:end="6.0213859"
       sodipodi:arc-type="slice"
       d="M 59.999995,19.623467 A 14.242653,14 0 0 1 44.38361,29.880228 14.242653,14 0 0 1 31.999996,16 14.242653,14 0 0 1 44.38361,2.1197719 14.242653,14 0 0 1 59.999995,12.376533 L 46.242649,16 Z"
       transform="matrix(0,1,1,0,0,0)" />
    <path
       style="fill:#f6ff00;fill-opacity:0.847619;stroke:none;stroke-width:2.759"
       id="path1-9-5"
       sodipodi:type="arc"
       sodipodi:cx="77.00515"
       sodipodi:cy="16"
       sodipodi:rx="15.005155"
       sodipodi:ry="14"
       sodipodi:start="0.52359878"
       sodipodi:end="5.7595865"
       sodipodi:arc-type="slice"
       d="M 89.999995,23 A 15.005155,14 0 0 1 73.12153,29.522962 15.005155,14 0 0 1 61.999995,16 15.005155,14 0 0 1 73.12153,2.4770385 15.005155,14 0 0 1 89.999995,8.9999996 L 77.00515,16 Z"
       transform="matrix(0,1,1,0,0,0)" />
  </g>
  <metadata
     id="metadata1">
    <rdf:RDF>
      <cc:Work
         rdf:about="">
        <dc:title>Pacman</dc:title>
      </cc:Work>
    </rdf:RDF>
  </metadata>
</svg>
