<?xml version="1.0" encoding="UTF-8" standalone="no"?>
<!-- Created with Inkscape (http://www.inkscape.org/) -->

<svg
   width="210mm"
   height="297mm"
   viewBox="0 0 210 297"
   version="1.1"
   id="svg1"
   xml:space="preserve"
   inkscape:export-filename="green_cherry_10.png"
   inkscape:export-xdpi="96"
   inkscape:export-ydpi="96"
   inkscape:version="1.3 (0e150ed6c4, 2023-07-21)"
   sodipodi:docname="cherry.svg"
   xmlns:inkscape="http://www.inkscape.org/namespaces/inkscape"
   xmlns:sodipodi="http://sodipodi.sourceforge.net/DTD/sodipodi-0.dtd"
   xmlns="http://www.w3.org/2000/svg"
   xmlns:svg="http://www.w3.org/2000/svg"
   xmlns:rdf="http://www.w3.org/1999/02/22-rdf-syntax-ns#"
   xmlns:cc="http://creativecommons.org/ns#"
   xmlns:dc="http://purl.org/dc/elements/1.1/"><title
     id="title1">Cherry</title><sodipodi:namedview
     id="namedview1"
     pagecolor="#ffffff"
     bordercolor="#000000"
     borderopacity="0.25"
     inkscape:showpageshadow="2"
     inkscape:pageopacity="0.0"
     inkscape:pagecheckerboard="0"
     inkscape:deskcolor="#d1d1d1"
     inkscape:document-units="mm"
     inkscape:zoom="0.4894542"
     inkscape:cx="354.47648"
     inkscape:cy="660.94029"
     inkscape:window-width="1920"
     inkscape:window-height="991"
     inkscape:window-x="-9"
     inkscape:window-y="-9"
     inkscape:window-maximized="1"
     inkscape:current-layer="layer1" /><defs
     id="defs1" /><g
     inkscape:label="Layer 1"
     inkscape:groupmode="layer"
     id="layer1"><path
       style="fill:#66322b;fill-opacity:0.84761906"
       d="m 99.326776,282.28034 c -27.178418,-2.47846 -50.284494,-21.8148 -56.779368,-47.51587 -1.710396,-6.76826 -2.19637,-15.65826 -1.235256,-22.59674 3.664939,-26.45793 24.455883,-47.81163 51.61253,-53.00956 3.905404,-0.74752 11.794168,-1.48742 13.968508,-1.31014 1.30346,0.10628 1.09667,1.2845 1.80452,-10.28185 0.65632,-10.72434 0.73833,-29.32272 0.15884,-36.02194 -0.51757,-5.9834 -1.70886,-14.351567 -2.68011,-18.82628 C 102.91837,77.707405 97.994979,61.395537 93.559034,50.914722 L 92.053248,47.357 90.267555,47.147158 C 86.068363,46.6537 83.071108,44.168345 78.721756,37.573263 76.350763,33.978038 75.211862,32.586145 72.77658,30.307435 70.406371,28.089616 69.652255,27.17776 69.238942,26.029826 c -0.720667,-2.001578 -0.654071,-3.603769 0.222615,-5.355745 1.512484,-3.022558 4.467266,-4.729252 8.180666,-4.725185 1.855668,0.002 2.616824,0.178115 4.948509,1.144763 4.828707,2.001841 6.544362,3.926292 9.761271,10.949227 2.002355,4.371405 3.058703,6.052539 5.029619,8.004436 1.255388,1.243272 2.329287,3.206369 2.340183,4.277874 0.0099,0.970335 -0.840283,2.75671 -1.730561,3.636335 l -0.764354,0.755207 1.124048,2.506038 c 5.911142,13.178745 12.716302,36.531495 15.287912,52.462391 2.07878,12.877873 2.49703,20.404803 2.32291,41.803383 l -0.13955,17.1491 2.05662,0.36121 c 19.52653,3.42952 36.76805,16.0465 45.95486,33.6288 4.86702,9.31483 6.97259,18.8536 6.60487,29.92181 -0.31773,9.56341 -2.40432,17.38767 -6.88914,25.83268 -3.12825,5.89056 -6.77604,10.74654 -11.6497,15.50823 -5.35874,5.23562 -11.05104,9.17152 -17.86653,12.35368 -10.80914,5.04681 -22.76131,7.12558 -34.706414,6.03628 z m 62.227884,-45.58288 c 2.00493,-4.7947 2.96946,-16.4621 1.93188,-23.36884 -1.17768,-7.83926 -4.75123,-16.88137 -8.44492,-21.36805 -2.23962,-2.72044 -7.0815,-5.50776 -11.76658,-6.77366 -3.05503,-0.82547 -9.42461,-0.78319 -12.37468,0.0821 -2.40215,0.7046 -6.97083,1.61981 -11.12155,2.22788 -1.68709,0.24716 -5.47558,0.3849 -10.33835,0.37587 -6.76673,-0.0126 -8.06396,-0.0938 -10.957164,-0.68629 -7.155745,-1.46541 -11.401824,-4.04231 -12.05022,-7.31314 -0.290964,-1.46777 0.556943,-4.046 1.755446,-5.3378 1.746315,-1.88224 3.277235,-2.49819 7.690516,-3.09418 4.464002,-0.60285 6.980662,-0.86365 9.378442,-0.9719 l 1.61277,-0.0728 0.18861,-1.30229 c 0.10374,-0.71626 0.18862,-2.10505 0.18862,-3.08619 v -1.7839 l -4.77757,0.1915 c -10.325614,0.41388 -17.712358,2.52125 -23.586861,6.72912 -2.623604,1.87927 -3.120036,2.41052 -4.071714,4.35731 -3.184222,6.51377 0.103302,15.16318 6.986691,18.38185 l 2.391819,1.11841 5.968042,-0.003 c 6.225982,-0.003 6.735663,-0.0601 16.149743,-1.80693 10.70887,-1.98709 17.69611,-2.41905 23.83685,-1.47361 16.20542,2.495 28.10994,15.23515 30.08286,32.19452 0.35044,3.01239 0.21937,12.02512 -0.21336,14.67105 l -0.19395,1.18591 0.59674,-0.88943 c 0.3282,-0.48919 0.84026,-1.47181 1.13789,-2.1836 z m -13.44568,-10.08658 c 0.0944,-0.14458 0.70082,-0.35682 1.34756,-0.47164 0.64674,-0.11482 1.31794,-0.29466 1.49155,-0.39966 0.30284,-0.18314 0.45991,-0.22943 1.0558,-0.31116 0.50486,-0.0692 2.68867,-1.85423 3.24475,-2.65216 0.30448,-0.43691 0.55453,-1.17377 0.55566,-1.63745 0.001,-0.57493 0.18949,-0.88945 0.59135,-0.9889 0.44037,-0.10898 0.64467,-0.53277 0.80846,-1.67699 0.3667,-2.56165 0.30505,-2.95774 -0.85585,-5.49884 -2.05042,-4.48816 -3.89596,-7.06136 -7.59076,-10.58361 -3.54074,-3.37538 -8.57612,-6.88793 -9.28216,-6.47499 -0.232,0.1357 -0.2865,0.0888 -0.14625,-0.126 0.22612,-0.34625 -0.31095,-0.482 -1.5365,-0.38836 -0.45743,0.035 -0.51377,-0.0213 -0.2087,-0.20825 0.3341,-0.20476 0.31326,-0.2941 -0.10394,-0.44561 -0.287,-0.10422 -0.82748,-0.1762 -1.20108,-0.15994 -0.62462,0.0272 -0.61626,0.0486 0.10394,0.26692 0.72598,0.22003 0.70309,0.24119 -0.31328,0.28963 -4.42639,0.21094 -6.29966,0.53241 -6.89223,1.18277 -0.0862,0.0946 -0.54882,0.40818 -1.02815,0.69693 -0.47933,0.28876 -0.78601,0.65595 -0.6815,0.81597 0.10451,0.16003 -0.30354,0.75805 -0.90678,1.32893 -0.60324,0.57088 -1.19396,1.46805 -1.3127,1.99371 -0.11875,0.52566 -0.3621,1.12735 -0.54079,1.33708 -0.67222,0.78902 -0.65826,4.60875 0.0247,6.76993 0.3545,1.12173 0.73338,2.4639 0.84195,2.98258 0.10856,0.51869 0.3998,1.10203 0.64718,1.29633 0.24738,0.1943 0.44979,0.5805 0.44979,0.85824 0,0.27773 0.35244,0.81831 0.7832,1.20128 0.43077,0.38297 0.78344,0.90654 0.78372,1.16347 2.9e-4,0.25694 0.99928,1.40106 2.22,2.54249 1.22072,1.14144 2.35965,2.32011 2.53097,2.61927 0.17132,0.29917 0.75831,0.73476 1.30444,0.96798 1.35887,0.5803 2.20112,1.09042 2.48291,1.50381 0.13026,0.19109 0.69417,0.43749 1.25314,0.54756 0.55896,0.11008 1.50972,0.47425 2.11279,0.80928 0.76727,0.42625 1.94306,0.67126 3.91604,0.81603 1.55075,0.11379 3.05794,0.22699 3.34931,0.25156 0.29136,0.0246 0.607,-0.0736 0.70142,-0.21819 z m 8.64683,-9.37264 c 0,-0.16306 0.13666,-0.49659 0.30369,-0.74119 0.16703,-0.24459 0.30369,-0.3113 0.30369,-0.14824 0,0.16307 -0.13666,0.4966 -0.30369,0.7412 -0.16703,0.24459 -0.30369,0.3113 -0.30369,0.14823 z m 0.5177,3.65038 c -0.10001,-0.23651 -0.17424,-0.16626 -0.18928,0.17912 -0.0136,0.31253 0.0604,0.48764 0.16455,0.38912 0.1041,-0.0985 0.11523,-0.35422 0.0247,-0.56824 z m 0.75948,-2.80982 -0.23972,-0.84056 -0.17276,0.84482 c -0.095,0.46465 -0.0962,1.12189 -0.003,1.46053 l 0.17013,0.6157 0.24235,-0.61997 c 0.13329,-0.34099 0.13447,-0.99822 0.003,-1.46052 z m -22.90331,-23.22456 c 0.34471,-0.21081 0.13601,-0.28305 -0.78321,-0.2711 -0.98454,0.0128 -1.11884,0.0709 -0.62656,0.2711 0.82432,0.33522 0.86165,0.33522 1.40977,0 z m 0.15664,-0.88943 c -0.34461,-0.14014 -1.0495,-0.24661 -1.56641,-0.23661 -0.91773,0.0178 -0.91404,0.0233 0.15664,0.23661 1.53794,0.30636 2.16312,0.30636 1.40977,0 z m -23.43429,-10.53608 c 0.84666,-0.52499 0.96583,-1.09095 0.17302,-0.82174 -0.30154,0.1024 -0.45543,0.0882 -0.34199,-0.0316 0.11344,-0.11974 0.39539,-0.24481 0.62657,-0.27793 0.97984,-0.14036 1.10351,-0.54467 1.16589,-3.81142 0.0352,-1.84116 0.19685,-7.14988 0.35932,-11.79715 0.91212,-26.09059 0.70947,-43.84391 -0.643,-56.33061 -0.96003,-8.86355 -2.31503,-17.036582 -2.78064,-16.77221 -0.10314,0.05856 -0.21029,-0.579765 -0.23811,-1.418509 -0.0633,-1.90743 -5.47596,-22.339064 -6.6695,-25.175803 -0.55996,-1.330879 -0.74092,-1.860248 -0.85651,-2.505555 -0.0649,-0.362648 -0.61768,-1.963623 -1.22829,-3.557723 -0.6106,-1.5941 -1.29528,-3.432022 -1.521508,-4.084271 C 99.29264,55.100972 97.92588,51.781684 96.899573,49.564076 96.40485,48.495097 95.856125,47.262167 95.680184,46.824233 95.396296,46.117607 95.276673,46.064045 94.617342,46.348341 l -0.742951,0.320351 1.212578,2.864207 c 2.203439,5.204704 4.01515,9.885662 4.01515,10.374034 0,0.213105 0.159811,0.288334 0.361688,0.170261 0.215849,-0.126246 0.276964,-0.08181 0.151568,0.110198 -0.115565,0.176958 0.160363,1.364949 0.613175,2.639981 4.92455,13.866614 8.29583,27.809826 10.31592,42.665507 1.8519,13.61873 1.88556,24.92891 0.15433,51.85704 -0.33547,5.21799 -0.75697,12.42238 -0.93667,16.00975 -0.1797,3.58737 -0.40051,7.50726 -0.49068,8.71087 l -0.16394,2.18838 1.01163,-0.19148 c 0.55639,-0.10531 1.3362,-0.39272 1.73289,-0.63871 z m 0.11943,-69.09266 c 0.015,-0.34538 0.0893,-0.41564 0.18928,-0.17913 0.0905,0.21402 0.0794,0.46973 -0.0247,0.56825 -0.1041,0.0985 -0.17814,-0.0766 -0.16454,-0.38912 z m -2.19298,-21.939293 c 0.015,-0.345379 0.0893,-0.415631 0.18927,-0.179121 0.0905,0.214019 0.0794,0.46973 -0.0247,0.568247 -0.1041,0.09852 -0.17814,-0.07659 -0.16454,-0.389126 z m 33.31716,85.593133 c 0.3474,-0.53195 -1.21437,-1.87223 -4.89375,-4.19975 -4.51287,-2.85475 -8.75386,-4.91551 -12.97091,-6.30275 -3.30891,-1.0885 -9.12922,-2.45761 -9.3917,-2.20922 -0.0869,0.0823 -0.24237,1.28046 -0.34545,2.66266 l -0.1874,2.51309 2.47115,0.20624 c 3.73335,0.31158 9.63642,1.51484 13.2977,2.71055 3.1396,1.02534 10.18134,4.13206 10.51143,4.6375 0.21192,0.3245 1.29362,0.31137 1.50893,-0.0183 z M 114.98028,123.6442 c -0.1,-0.23651 -0.17424,-0.16625 -0.18927,0.17913 -0.0136,0.31253 0.0604,0.48764 0.16454,0.38912 0.1041,-0.0985 0.11523,-0.35423 0.0247,-0.56825 z m -4.69924,-7.11544 c -0.10001,-0.23651 -0.17425,-0.16626 -0.18928,0.17912 -0.0136,0.31254 0.0604,0.48764 0.16454,0.38913 0.10411,-0.0985 0.11524,-0.35423 0.0247,-0.56825 z"
       id="path1" /><path
       style="fill:#00ff00;fill-opacity:0.631293"
       d="m 99.152141,280.51904 c -27.17842,-2.47846 -50.284498,-21.8148 -56.779372,-47.51587 -1.710396,-6.76826 -2.19637,-15.65826 -1.235256,-22.59674 3.664939,-26.45793 24.455888,-47.81163 51.612538,-53.00956 3.9054,-0.74752 11.794159,-1.48742 13.968499,-1.31014 1.30346,0.10628 1.09667,1.2845 1.80452,-10.28185 0.65632,-10.72434 0.73833,-29.32272 0.15884,-36.02194 -0.51757,-5.9834 -1.70886,-14.351574 -2.68011,-18.826282 -3.25807,-15.01056 -8.181459,-31.32243 -12.617399,-41.80324 l -1.50579,-3.55772 -1.78569,-0.20984 c -4.19919,-0.49346 -7.19645,-2.97882 -11.5458,-9.5739 -2.37099,-3.59522 -3.50989,-4.98712 -5.94518,-7.26583 -2.37021,-2.21782 -3.12432,-3.12967 -3.53763,-4.27761 -0.72067,-2.00157 -0.65407,-3.60376 0.22261,-5.355741 1.51249,-3.022558 4.46727,-4.729252 8.18067,-4.725185 1.85566,0.002 2.61682,0.178115 4.94851,1.144763 4.8287,2.001841 6.54436,3.926292 9.76127,10.949223 2.00235,4.37141 3.0587,6.05254 5.02962,8.00444 1.25538,1.24327 2.32928,3.20637 2.34018,4.27787 0.01,0.97034 -0.84028,2.75671 -1.73056,3.63634 l -0.76436,0.75521 1.12405,2.50603 c 5.911139,13.17875 12.716299,36.5315 15.287909,52.462391 2.07878,12.877881 2.49703,20.404811 2.32291,41.803391 l -0.13955,17.1491 2.05662,0.36121 c 19.52653,3.42952 36.76805,16.0465 45.95486,33.6288 4.86702,9.31483 6.97259,18.8536 6.60487,29.92181 -0.31773,9.56341 -2.40432,17.38767 -6.88914,25.83268 -3.12825,5.89056 -6.77604,10.74654 -11.6497,15.50823 -5.35874,5.23562 -11.05104,9.17152 -17.86653,12.35368 -10.80914,5.04681 -22.76131,7.12558 -34.706409,6.03628 z m 62.227879,-45.58288 c 2.00493,-4.7947 2.96946,-16.4621 1.93188,-23.36884 -1.17768,-7.83926 -4.75123,-16.88137 -8.44492,-21.36805 -2.23962,-2.72044 -7.0815,-5.50776 -11.76658,-6.77366 -3.05503,-0.82547 -9.42461,-0.78319 -12.37468,0.0821 -2.40215,0.7046 -6.97083,1.61981 -11.12155,2.22788 -1.68709,0.24716 -5.47558,0.3849 -10.33835,0.37587 -6.76673,-0.0126 -8.06396,-0.0938 -10.957159,-0.68629 -7.15575,-1.46541 -11.40182,-4.04231 -12.05022,-7.31314 -0.29096,-1.46777 0.55694,-4.046 1.75545,-5.3378 1.74631,-1.88224 3.27723,-2.49819 7.69051,-3.09418 4.463999,-0.60285 6.980659,-0.86365 9.378439,-0.9719 l 1.61277,-0.0728 0.18861,-1.30229 c 0.10374,-0.71626 0.18862,-2.10505 0.18862,-3.08619 v -1.7839 l -4.77757,0.1915 c -10.325609,0.41388 -17.712349,2.52125 -23.586859,6.72912 -2.6236,1.87927 -3.12003,2.41052 -4.07171,4.35731 -3.18422,6.51377 0.1033,15.16318 6.98669,18.38185 l 2.39182,1.11841 5.96804,-0.003 c 6.22598,-0.003 6.73566,-0.0601 16.149739,-1.80693 10.70887,-1.98709 17.69611,-2.41905 23.83685,-1.47361 16.20542,2.495 28.10994,15.23515 30.08286,32.19452 0.35044,3.01239 0.21937,12.02512 -0.21336,14.67105 l -0.19395,1.18591 0.59674,-0.88943 c 0.3282,-0.48919 0.84026,-1.47181 1.13789,-2.1836 z m -13.44568,-10.08658 c 0.0944,-0.14458 0.70082,-0.35682 1.34756,-0.47164 0.64674,-0.11482 1.31794,-0.29466 1.49155,-0.39966 0.30284,-0.18314 0.45991,-0.22943 1.0558,-0.31116 0.50486,-0.0692 2.68867,-1.85423 3.24475,-2.65216 0.30448,-0.43691 0.55453,-1.17377 0.55566,-1.63745 0.001,-0.57493 0.18949,-0.88945 0.59135,-0.9889 0.44037,-0.10898 0.64467,-0.53277 0.80846,-1.67699 0.3667,-2.56165 0.30505,-2.95774 -0.85585,-5.49884 -2.05042,-4.48816 -3.89596,-7.06136 -7.59076,-10.58361 -3.54074,-3.37538 -8.57612,-6.88793 -9.28216,-6.47499 -0.232,0.1357 -0.2865,0.0888 -0.14625,-0.126 0.22612,-0.34625 -0.31095,-0.482 -1.5365,-0.38836 -0.45743,0.035 -0.51377,-0.0213 -0.2087,-0.20825 0.3341,-0.20476 0.31326,-0.2941 -0.10394,-0.44561 -0.287,-0.10422 -0.82748,-0.1762 -1.20108,-0.15994 -0.62462,0.0272 -0.61626,0.0486 0.10394,0.26692 0.72598,0.22003 0.70309,0.24119 -0.31328,0.28963 -4.42639,0.21094 -6.29966,0.53241 -6.89223,1.18277 -0.0862,0.0946 -0.54882,0.40818 -1.02815,0.69693 -0.47933,0.28876 -0.78601,0.65595 -0.6815,0.81597 0.10451,0.16003 -0.30354,0.75805 -0.90678,1.32893 -0.60324,0.57088 -1.19396,1.46805 -1.3127,1.99371 -0.11875,0.52566 -0.3621,1.12735 -0.54079,1.33708 -0.67222,0.78902 -0.65826,4.60875 0.0247,6.76993 0.3545,1.12173 0.73338,2.4639 0.84195,2.98258 0.10856,0.51869 0.3998,1.10203 0.64718,1.29633 0.24738,0.1943 0.44979,0.5805 0.44979,0.85824 0,0.27773 0.35244,0.81831 0.7832,1.20128 0.43077,0.38297 0.78344,0.90654 0.78372,1.16347 2.9e-4,0.25694 0.99928,1.40106 2.22,2.54249 1.22072,1.14144 2.35965,2.32011 2.53097,2.61927 0.17132,0.29917 0.75831,0.73476 1.30444,0.96798 1.35887,0.5803 2.20112,1.09042 2.48291,1.50381 0.13026,0.19109 0.69417,0.43749 1.25314,0.54756 0.55896,0.11008 1.50972,0.47425 2.11279,0.80928 0.76727,0.42625 1.94306,0.67126 3.91604,0.81603 1.55075,0.11379 3.05794,0.22699 3.34931,0.25156 0.29136,0.0246 0.607,-0.0736 0.70142,-0.21819 z m 8.64683,-9.37264 c 0,-0.16306 0.13666,-0.49659 0.30369,-0.74119 0.16703,-0.24459 0.30369,-0.3113 0.30369,-0.14824 0,0.16307 -0.13666,0.4966 -0.30369,0.7412 -0.16703,0.24459 -0.30369,0.3113 -0.30369,0.14823 z m 0.5177,3.65038 c -0.10001,-0.23651 -0.17424,-0.16626 -0.18928,0.17912 -0.0136,0.31253 0.0604,0.48764 0.16455,0.38912 0.1041,-0.0985 0.11523,-0.35422 0.0247,-0.56824 z m 0.75948,-2.80982 -0.23972,-0.84056 -0.17276,0.84482 c -0.095,0.46465 -0.0962,1.12189 -0.003,1.46053 l 0.17013,0.6157 0.24235,-0.61997 c 0.13329,-0.34099 0.13447,-0.99822 0.003,-1.46052 z m -22.90331,-23.22456 c 0.34471,-0.21081 0.13601,-0.28305 -0.78321,-0.2711 -0.98454,0.0128 -1.11884,0.0709 -0.62656,0.2711 0.82432,0.33522 0.86165,0.33522 1.40977,0 z m 0.15664,-0.88943 c -0.34461,-0.14014 -1.0495,-0.24661 -1.56641,-0.23661 -0.91773,0.0178 -0.91404,0.0233 0.15664,0.23661 1.53794,0.30636 2.16312,0.30636 1.40977,0 z m -23.43429,-10.53608 c 0.84666,-0.52499 0.96583,-1.09095 0.17302,-0.82174 -0.30154,0.1024 -0.45543,0.0882 -0.34199,-0.0316 0.11344,-0.11974 0.39539,-0.24481 0.62657,-0.27793 0.97984,-0.14036 1.10351,-0.54467 1.16589,-3.81142 0.0352,-1.84116 0.19685,-7.14988 0.35932,-11.79715 0.91212,-26.09059 0.70947,-43.84391 -0.643,-56.33061 -0.96003,-8.863551 -2.31503,-17.036582 -2.78064,-16.772212 -0.10314,0.0586 -0.21029,-0.57977 -0.23811,-1.41851 -0.0633,-1.90743 -5.47596,-22.33906 -6.6695,-25.1758 -0.55996,-1.33088 -0.74092,-1.86025 -0.85651,-2.50556 -0.0649,-0.36265 -0.61768,-1.96362 -1.22829,-3.55772 -0.6106,-1.5941 -1.295279,-3.43202 -1.521499,-4.08427 -0.60465,-1.74324 -1.97141,-5.06253 -2.99771,-7.28014 -0.49473,-1.06897 -1.04345,-2.30191 -1.21939,-2.73984 -0.28389,-0.70662 -0.40351,-0.76019 -1.06284,-0.47589 l -0.74296,0.32035 1.21258,2.86421 c 2.20344,5.2047 4.01515,9.88566 4.01515,10.37403 0,0.21311 0.15981,0.28833 0.36169,0.17026 0.21585,-0.12624 0.27696,-0.0818 0.15157,0.1102 -0.11557,0.17696 0.16036,1.36495 0.613169,2.63998 4.92455,13.86661 8.29583,27.80983 10.31592,42.665512 1.8519,13.61873 1.88556,24.92891 0.15433,51.85704 -0.33547,5.21799 -0.75697,12.42238 -0.93667,16.00975 -0.1797,3.58737 -0.40051,7.50726 -0.49068,8.71087 l -0.16394,2.18838 1.01163,-0.19148 c 0.55639,-0.10531 1.3362,-0.39272 1.73289,-0.63871 z m 0.11943,-69.09266 c 0.015,-0.34538 0.0893,-0.41564 0.18928,-0.17913 0.0905,0.21402 0.0794,0.46973 -0.0247,0.56825 -0.1041,0.0985 -0.17814,-0.0766 -0.16454,-0.38912 z m -2.19298,-21.939292 c 0.015,-0.34538 0.0893,-0.41564 0.18927,-0.17913 0.0905,0.21402 0.0794,0.46973 -0.0247,0.56825 -0.1041,0.0985 -0.17814,-0.0766 -0.16454,-0.38912 z M 142.921,176.22861 c 0.3474,-0.53195 -1.21437,-1.87223 -4.89375,-4.19975 -4.51287,-2.85475 -8.75386,-4.91551 -12.97091,-6.30275 -3.30891,-1.0885 -9.12922,-2.45761 -9.3917,-2.20922 -0.0869,0.0823 -0.24237,1.28046 -0.34545,2.66266 l -0.1874,2.51309 2.47115,0.20624 c 3.73335,0.31158 9.63642,1.51484 13.2977,2.71055 3.1396,1.02534 10.18134,4.13206 10.51143,4.6375 0.21192,0.3245 1.29362,0.31137 1.50893,-0.0183 z M 114.80564,121.8829 c -0.1,-0.23651 -0.17424,-0.16625 -0.18927,0.17913 -0.0136,0.31253 0.0604,0.48764 0.16454,0.38912 0.1041,-0.0985 0.11523,-0.35423 0.0247,-0.56825 z m -4.69924,-7.11544 c -0.10001,-0.23651 -0.17425,-0.16626 -0.18928,0.17912 -0.0136,0.31254 0.0604,0.48764 0.16454,0.38913 0.10411,-0.0985 0.11524,-0.35423 0.0247,-0.56825 z"
       id="path1-2" /></g><metadata
     id="metadata1"><rdf:RDF><cc:Work
         rdf:about=""><dc:title>Cherry</dc:title></cc:Work></rdf:RDF></metadata></svg>
